<svg xmlns="http://www.w3.org/2000/svg" viewBox="0 0 64 64">
  <rect width="64" height="64" rx="12" fill="#151719"/>
  <path d="M17 39c2.2 3.6 5.3 5.4 9.5 5.4 5.7 0 9-3.2 9-9.4V17h-7.2v17.5c0 2.4-1 3.6-3 3.6-1.9 0-3.4-.9-4.7-2.8L17 39Z" fill="#faf7f0"/>
  <path d="M38 40.2c2.2 2.8 5.1 4.2 8.7 4.2 5 0 8.3-2.8 8.3-7 0-3.6-2-5.6-6.7-6.9l-2.3-.6c-1.8-.5-2.5-1.1-2.5-2.2 0-1.2 1.1-2 2.7-2 1.9 0 3.4.8 4.9 2.3l3.7-4.5c-2.1-2.3-5-3.5-8.5-3.5-4.8 0-8.1 2.8-8.1 7 0 3.4 2 5.6 6.3 6.7l2.4.7c2 .6 2.7 1.2 2.7 2.4 0 1.3-1.1 2.1-2.9 2.1-2.1 0-3.8-.9-5.4-2.8L38 40.2Z" fill="#89c7bd"/>
</svg>
